<svg width="175" height="69" viewBox="0 0 175 69" fill="none" xmlns="http://www.w3.org/2000/svg">
<g clip-path="url(#clip0_44_50)">
<path d="M62.2499 13.7795V13.5471C62.2499 9.53533 61.0461 6.33725 58.8679 4.12784C56.3458 1.5696 52.6198 0.232462 47.9769 0.232462H32.9012V40.9323H41.2128V27.5594H46.4291L53.8236 40.9323H63.339L54.798 25.8153C59.2118 23.8383 62.2499 19.9429 62.2499 13.7795ZM53.8814 14.0124C53.8814 17.6753 51.5884 20.1171 47.3464 20.1171H41.2131V7.84899H47.1747C51.4163 7.84899 53.8814 9.88417 53.8814 13.9542V14.0124Z" fill="#30472F"/>
<path d="M116.704 0.232462H103.749V40.9323H116.704C128.34 40.9323 135.849 32.7341 135.849 20.8148V20.2917C135.849 8.37243 128.34 0.232462 116.704 0.232462ZM127.251 20.757C127.251 28.8387 122.952 33.3158 116.647 33.3158H112.061V7.84899H116.647C122.952 7.84899 127.251 12.3842 127.251 20.466V20.757Z" fill="#30472F"/>
<path d="M78.243 24.2453H93.7195V16.6288H78.243V7.84899H95.84V0.232462H69.9885V40.9323H96.0698V33.3158H78.243V24.2453Z" fill="#30472F"/>
<path d="M160.613 0H152.703L138.315 40.9323H146.684L149.607 32.0946H163.422L166.402 40.9323H175.001L160.613 0ZM152.129 24.6523L156.543 11.3959L160.899 24.6523H152.129Z" fill="#30472F"/>
<path d="M0 40.9323H8.31151V24.827H23.731V17.0937H8.31151V7.96539H25.8519V0.232462H0V40.9323Z" fill="#30472F"/>
<path d="M163.415 68.7849H166.427V59.6813L172.305 68.7849H174.935V53.7202H171.923V62.5007L166.236 53.7202H163.415V68.7849ZM142.876 68.7849H145.953V53.7202H142.876V68.7849ZM115.273 68.7849H125.839V66.0086H119.071L125.839 56.109V53.7202H115.485V56.4961H122.041L115.273 66.3961V68.7849ZM90.9792 62.7589L92.613 57.852L94.2254 62.7589H90.9792ZM85.866 68.7849H88.9637L90.0455 65.5135H95.1591L96.2624 68.7849H99.4447L94.1194 53.634H91.1913L85.866 68.7849ZM64.6912 69C66.8977 69 68.6162 68.1609 69.9744 67.1277V60.155H64.3516V62.8665H67.0462V65.5352C66.4946 65.9441 65.7095 66.1592 64.8397 66.1592C62.6543 66.1592 60.9783 64.4162 60.9783 61.3172V61.1448C60.9783 58.3685 62.5907 56.4103 64.7123 56.4103C66.134 56.4103 67.0038 56.9698 67.7889 57.7014L69.6134 55.2695C68.2555 54.1073 66.8342 53.5047 64.7547 53.5047C60.7234 53.5047 57.8167 56.7116 57.8167 61.1665V61.3599C57.8167 66.073 60.7023 69 64.6912 69ZM34.3929 62.7589L36.0267 57.852L37.6391 62.7589H34.3929ZM29.2797 68.7849H32.3774L33.4592 65.5135H38.5728L39.676 68.7849H42.8584L37.5331 53.634H34.605L29.2797 68.7849ZM0 68.7849H2.99166V59.208L6.47141 65.3846H6.53496L10.0358 59.1649V68.7849H13.0485V53.7202H9.80226L6.53496 59.832L3.22517 53.7202H0V68.7849Z" fill="#30472F"/>
</g>
<defs>
<clipPath id="clip0_44_50">
<rect width="175" height="69" fill="white"/>
</clipPath>
</defs>
</svg>
