<svg width="197" height="69" viewBox="0 0 197 69" fill="none" xmlns="http://www.w3.org/2000/svg">
<path d="M154.925 21.0438C154.925 9.2999 145.917 0.298155 132.88 0.298155H116.702V42.0283H132.88C145.917 42.0283 154.925 32.9074 154.925 21.1629V21.0438ZM145.384 21.2821C145.384 28.6745 140.287 33.742 132.88 33.742H125.828V8.58444H132.88C140.287 8.58444 145.384 13.7711 145.384 21.1629V21.2821ZM62.8347 27.1244C68.109 25.1575 71.7235 20.9246 71.7235 14.1884V14.0687C71.7235 10.0747 70.5385 6.91521 68.168 4.53052C65.3827 1.72853 61.3528 0.298155 56.0791 0.298155H37.1155V42.0283H46.2417V28.6745H53.4122L62.3015 42.0283H72.968L62.8347 27.1244ZM62.4789 14.665C62.4789 18.2418 59.9899 20.5672 55.4863 20.5672H46.2417V8.58444H55.3084C59.8125 8.58444 62.4789 10.5518 62.4789 14.5459V14.665ZM87.2495 33.8611H109.769V42.0283H78.1828V0.298155H109.472V8.46528H87.2495V16.9306H106.805V25.0977H87.2495V33.8611ZM0.0191038 0.298155H31.6049V8.64429H9.14529V17.5269H28.938V25.8725H9.14529V42.0283H0.0191038V0.298155ZM187.46 42.0283H197L179.222 0H170.807L153.029 42.0283H162.333L166.125 32.6685H183.667L187.46 42.0283ZM169.385 24.5612L174.896 11.0284L180.407 24.5612H169.385ZM9.1824 54.8039H12.2237V68.8001H9.40128V59.8626L6.12196 65.6412H6.06192L2.80226 59.9027V68.8001H0V54.8039H3.02114L6.12196 60.4826L9.1824 54.8039ZM37.2274 54.7237L32.2386 68.8001H35.1402L36.1538 65.7609H40.9439L41.9777 68.8001H44.959L39.9702 54.7237H37.2274ZM37.0282 63.2016L38.5587 58.6431L40.0695 63.2016H37.0282ZM189.913 54.8039H192.735V68.8001H190.271L184.765 60.3425V68.8001H181.943V54.8039H184.586L189.913 62.9617V54.8039ZM157.893 54.8039H160.775V68.8001H157.893V54.8039ZM127.424 54.8039H137.123V57.0233L130.783 66.2211H137.123V68.8001H127.225V66.5807L133.565 57.3829H127.424V54.8039ZM99.8558 54.7237L94.867 68.8001H97.7691L98.7827 65.7609H103.573L104.606 68.8001H107.587L102.599 54.7237H99.8558ZM99.6571 63.2016L101.188 58.6431L102.698 63.2016H99.6571ZM69.9032 60.7824H75.1704V67.2605C73.8981 68.2203 72.2884 69 70.2214 69C66.4847 69 63.7812 66.2809 63.7812 61.9019V61.7218C63.7812 57.5834 66.5043 54.604 70.2809 54.604C72.2284 54.604 73.5602 55.1635 74.8325 56.2436L73.123 58.5031C72.3878 57.8233 71.5729 57.3033 70.241 57.3033C68.2537 57.3033 66.7429 59.1225 66.7429 61.7021V61.8619C66.7429 64.7413 68.3132 66.3605 70.36 66.3605C71.1749 66.3605 71.9107 66.1607 72.4276 65.7807V63.3016H69.9032V60.7824Z" fill="white"/>
</svg>
