<svg width="10" height="9" viewBox="0 0 10 9" fill="none" xmlns="http://www.w3.org/2000/svg">
<path d="M8.6285 4.96319H0.454132C0.199818 4.96319 0 4.76338 0 4.50906C0 4.25475 0.199818 4.05493 0.454132 4.05493H8.6285C8.88281 4.05493 9.08263 4.25475 9.08263 4.50906C9.08263 4.76338 8.88281 4.96319 8.6285 4.96319Z" fill="#30472F"/>
<path d="M6.35794 8.14212C6.29838 8.14285 6.23933 8.1311 6.18458 8.10764C6.12983 8.08417 6.0806 8.04951 6.04005 8.00588C5.8584 7.82423 5.8584 7.54267 6.04005 7.36101L8.90108 4.49998L6.04005 1.63896C5.8584 1.4573 5.8584 1.17574 6.04005 0.994089C6.2217 0.812436 6.50326 0.812436 6.68491 0.994089L9.86384 4.17301C10.0455 4.35466 10.0455 4.63622 9.86384 4.81788L6.68491 7.9968C6.59409 8.08762 6.47601 8.13304 6.36702 8.13304L6.35794 8.14212Z" fill="#30472F"/>
</svg>
