<svg width="40" height="21" viewBox="0 0 40 21" fill="none" xmlns="http://www.w3.org/2000/svg">
<path d="M38.7764 9.29254C38.776 9.29205 38.7756 9.29149 38.775 9.291L30.7687 0.892665C30.1689 0.263516 29.1987 0.265858 28.6017 0.898156C28.0047 1.53037 28.007 2.55295 28.6068 3.18218L33.9823 8.82069H1.53226C0.685992 8.82069 0 9.54376 0 10.4358C0 11.3278 0.685992 12.0508 1.53226 12.0508H33.9822L28.6069 17.6893C28.0071 18.3186 28.0048 19.3411 28.6018 19.9734C29.1988 20.6057 30.169 20.6079 30.7688 19.9789L38.7751 11.5805C38.7756 11.58 38.776 11.5795 38.7765 11.579C39.3766 10.9477 39.3747 9.92177 38.7764 9.29254Z" fill="white"/>
</svg>
