<svg width="31" height="16" viewBox="0 0 31 16" fill="none" xmlns="http://www.w3.org/2000/svg">
<path d="M29.8887 6.6556C29.8884 6.65523 29.8881 6.65481 29.8877 6.65445L23.8803 0.352884C23.4302 -0.119188 22.7023 -0.117432 22.2543 0.357003C21.8064 0.831378 21.8081 1.59865 22.2581 2.07079L26.2915 6.30156H1.94316C1.30818 6.30156 0.793457 6.8441 0.793457 7.5134C0.793457 8.1827 1.30818 8.72523 1.94316 8.72523H26.2915L22.2582 12.956C21.8081 13.4281 21.8064 14.1954 22.2543 14.6698C22.7023 15.1443 23.4303 15.1459 23.8803 14.6739L29.8878 8.37235C29.8881 8.37198 29.8884 8.37156 29.8888 8.3712C30.3391 7.89749 30.3376 7.12773 29.8887 6.6556Z" fill="black"/>
</svg>
