<svg width="26" height="26" viewBox="0 0 26 26" fill="none" xmlns="http://www.w3.org/2000/svg">
<path fill-rule="evenodd" clip-rule="evenodd" d="M2 0C0.895431 0 0 0.89543 0 2V24C0 25.1046 0.89543 26 2 26H24C25.1046 26 26 25.1046 26 24V2C26 0.895431 25.1046 0 24 0H2ZM13 12.4732C12.1247 10.6284 9.74053 7.19079 7.524 5.49536H7.52389C5.92462 4.272 3.33322 3.32544 3.33322 6.33745C3.33322 6.93892 3.67171 11.3906 3.87025 12.1134C4.56025 14.6261 7.07499 15.2669 9.31192 14.8791C5.40185 15.557 4.40722 17.8029 6.55535 20.0488C10.6352 24.3142 12.4191 18.9788 12.8763 17.6115L12.8764 17.6115C12.9602 17.3608 12.9994 17.2436 12.9999 17.3433C13.0005 17.2436 13.0397 17.3608 13.1235 17.6115L13.1237 17.6121C13.5814 18.9802 15.3655 24.3135 19.4445 20.0488C21.5926 17.8029 20.598 15.5571 16.688 14.8791C18.9248 15.2669 21.4395 14.6261 22.1296 12.1134C22.3282 11.3907 22.6667 6.93899 22.6667 6.33745C22.6667 3.32544 20.0753 4.272 18.476 5.49536C16.2594 7.19075 13.8754 10.6286 13 12.4732Z" fill="#30472F"/>
</svg>
