<svg width="25" height="25" viewBox="0 0 25 25" fill="none" xmlns="http://www.w3.org/2000/svg">
<path fill-rule="evenodd" clip-rule="evenodd" d="M1 0C0.447715 0 0 0.447716 0 1V24C0 24.5523 0.447716 25 1 25H24C24.5523 25 25 24.5523 25 24V1C25 0.447715 24.5523 0 24 0H1ZM12.7769 11.9642C11.8863 10.0871 9.4605 6.5894 7.20522 4.86433H7.2051C5.57788 3.61959 2.94118 2.65649 2.94118 5.72115C2.94118 6.33314 3.28559 10.8627 3.4876 11.5981C4.18966 14.1547 6.74835 14.8067 9.02439 14.4121C5.04597 15.1018 4.03395 17.3871 6.21964 19.6722C10.3708 24.0121 12.1859 18.5835 12.6511 17.1923L12.6511 17.1922C12.7364 16.9372 12.7763 16.8179 12.7769 16.9194C12.7775 16.8179 12.8174 16.9372 12.9026 17.1922L12.9028 17.1929C13.3685 18.5849 15.1838 24.0114 19.3341 19.6722C21.5198 17.3871 20.5077 15.102 16.5294 14.4121C18.8053 14.8067 21.364 14.1547 22.0662 11.5981C22.2682 10.8627 22.6126 6.3332 22.6126 5.72115C22.6126 2.65649 19.976 3.61959 18.3487 4.86433C16.0933 6.58937 13.6676 10.0873 12.7769 11.9642Z" fill="white"/>
</svg>
