<svg width="26" height="18" viewBox="0 0 26 18" fill="none" xmlns="http://www.w3.org/2000/svg">
<path d="M24.602 1.49785C24.6004 1.49785 24.5987 1.49785 24.5971 1.49785H22.9486V0.933741C22.9575 0.710468 22.813 0.509808 22.5984 0.447439C21.4539 0.147513 20.2754 -0.00287616 19.0922 4.16532e-05C17.147 4.16532e-05 14.4967 0.437713 12.5369 2.43155C10.5917 0.418261 7.92186 4.16532e-05 5.98151 4.16532e-05C4.79834 -0.00287616 3.61979 0.147513 2.47528 0.447439C2.2607 0.509808 2.11626 0.710468 2.12514 0.933741V1.49299H0.486302C0.217742 1.49299 0 1.71073 0 1.97929V17.5118C0 17.7803 0.217742 17.9981 0.486302 17.9981C0.569824 17.9978 0.651888 17.9761 0.72459 17.9349C0.77322 17.9105 5.63624 15.2505 12.425 16.9622H12.498H12.5417C12.5805 16.9669 12.6197 16.9669 12.6584 16.9622C19.4667 15.2359 24.3297 17.8911 24.3589 17.9349C24.5093 18.0217 24.6947 18.0217 24.8452 17.9349C24.9947 17.8485 25.0873 17.6893 25.0883 17.5166V1.98415C25.0883 1.71559 24.8706 1.49785 24.602 1.49785ZM0.972604 16.7385V2.47045H2.13486V14.6669C2.13183 14.9355 2.34707 15.1556 2.61563 15.1587C2.6419 15.159 2.66816 15.1572 2.69411 15.1532C3.70015 14.9996 4.71585 14.9183 5.7335 14.9101C7.14317 14.8856 8.54694 15.0976 9.88652 15.5374C6.86141 15.1716 3.79297 15.585 0.972604 16.7385ZM5.7335 13.9423C4.84898 13.9443 3.96549 14.0012 3.08802 14.1125V1.31792C4.03485 1.10699 5.00174 0.999331 5.97179 0.99696C7.79055 0.99696 10.2999 1.41518 12.0408 3.37984L12.0554 15.4936C11.0439 14.8322 9.06953 13.9423 5.7335 13.9423ZM13.028 3.37984C14.769 1.43463 17.2783 0.99696 19.0971 0.99696C20.0671 0.999817 21.034 1.10741 21.9808 1.31792V14.1125C21.1083 14.0001 20.2297 13.9416 19.3499 13.9375C16.0334 13.9375 14.0541 14.8274 13.028 15.4888V3.37984ZM24.1108 16.7385C21.2845 15.5819 18.209 15.1683 15.1775 15.5374C16.5234 15.0961 17.9338 14.884 19.3499 14.9101C20.374 14.9158 21.3962 14.9954 22.4088 15.1483C22.6743 15.1886 22.9223 15.006 22.9626 14.7405C22.9665 14.7146 22.9683 14.6883 22.968 14.662V2.47045H24.1303L24.1108 16.7385Z" fill="black"/>
</svg>
