<svg width="15" height="17" viewBox="0 0 15 17" fill="none" xmlns="http://www.w3.org/2000/svg">
<path d="M3.97958 1.73089H3.03879C1.50101 1.73089 0.224988 2.93408 0.13345 4.47023C-0.0477895 7.50683 -0.0444218 10.5856 0.143553 13.6213C0.234172 15.0894 1.40427 16.2655 2.8649 16.3569C5.92545 16.548 9.07357 16.548 12.1347 16.3569C13.5954 16.2655 14.7655 15.0897 14.8564 13.6213C15.0444 10.5859 15.0477 7.50652 14.8668 4.47023C14.775 2.93408 13.4989 1.73089 11.9618 1.73089H11.021V0.961583C11.021 0.707097 10.8149 0.5 10.5618 0.5C10.3086 0.5 10.1025 0.707097 10.1025 0.961583V1.73089H4.89802V0.961583C4.89802 0.707097 4.69199 0.5 4.4388 0.5C4.18562 0.5 3.97958 0.707097 3.97958 0.961583V1.73089ZM14.0374 6.49535C14.1158 8.87496 14.0828 11.253 13.9401 13.564C13.8776 14.5684 13.0774 15.3728 12.0784 15.4353C10.5596 15.5304 9.02979 15.5778 7.50028 15.5778C5.97076 15.5778 4.44125 15.5304 2.92215 15.4353C1.92288 15.3725 1.12261 14.5681 1.06046 13.564C0.917493 11.2533 0.884736 8.87496 0.963416 6.49535L0.968314 6.34672H14.0329L14.0381 6.49535H14.0374ZM4.4388 3.88494C4.69199 3.88494 4.89802 3.67784 4.89802 3.42336V2.65405H10.1025V3.42336C10.1025 3.67784 10.3086 3.88494 10.5618 3.88494C10.8149 3.88494 11.021 3.67784 11.021 3.42336V2.65405H11.9618C13.014 2.65405 13.8874 3.47598 13.9502 4.52531C13.9585 4.66902 13.9643 4.81334 13.9698 4.95735C13.9738 5.05921 13.9774 5.16076 13.9823 5.2623L13.9903 5.42355H1.00964L1.0176 5.262C1.02281 5.15799 1.02679 5.05367 1.03077 4.94966C1.03628 4.80811 1.04179 4.66655 1.05006 4.52531C1.11282 3.47598 1.98625 2.65405 3.03848 2.65405H3.97927V3.42336C3.97927 3.67784 4.18562 3.88494 4.4388 3.88494Z" fill="black"/>
<path d="M4.43883 10.0394C4.86153 10.0394 5.2042 9.69495 5.2042 9.27008C5.2042 8.8452 4.86153 8.50077 4.43883 8.50077C4.01613 8.50077 3.67346 8.8452 3.67346 9.27008C3.67346 9.69495 4.01613 10.0394 4.43883 10.0394Z" fill="black"/>
<path d="M7.50031 10.0394C7.92301 10.0394 8.26568 9.69495 8.26568 9.27008C8.26568 8.8452 7.92301 8.50077 7.50031 8.50077C7.07761 8.50077 6.73494 8.8452 6.73494 9.27008C6.73494 9.69495 7.07761 10.0394 7.50031 10.0394Z" fill="black"/>
<path d="M4.43883 13.1166C4.86153 13.1166 5.2042 12.7722 5.2042 12.3473C5.2042 11.9224 4.86153 11.578 4.43883 11.578C4.01613 11.578 3.67346 11.9224 3.67346 12.3473C3.67346 12.7722 4.01613 13.1166 4.43883 13.1166Z" fill="black"/>
<path d="M10.5618 10.0394C10.9845 10.0394 11.3272 9.69495 11.3272 9.27008C11.3272 8.8452 10.9845 8.50077 10.5618 8.50077C10.1391 8.50077 9.79642 8.8452 9.79642 9.27008C9.79642 9.69495 10.1391 10.0394 10.5618 10.0394Z" fill="black"/>
<path d="M10.5618 13.1166C10.9845 13.1166 11.3272 12.7722 11.3272 12.3473C11.3272 11.9224 10.9845 11.578 10.5618 11.578C10.1391 11.578 9.79642 11.9224 9.79642 12.3473C9.79642 12.7722 10.1391 13.1166 10.5618 13.1166Z" fill="black"/>
<path d="M7.50031 13.1166C7.92301 13.1166 8.26568 12.7722 8.26568 12.3473C8.26568 11.9224 7.92301 11.578 7.50031 11.578C7.07761 11.578 6.73494 11.9224 6.73494 12.3473C6.73494 12.7722 7.07761 13.1166 7.50031 13.1166Z" fill="black"/>
</svg>
