<svg width="25" height="25" viewBox="0 0 25 25" fill="none" xmlns="http://www.w3.org/2000/svg">
<path fill-rule="evenodd" clip-rule="evenodd" d="M1 0C0.447715 0 0 0.447716 0 1V24C0 24.5523 0.447716 25 1 25H24C24.5523 25 25 24.5523 25 24V1C25 0.447715 24.5523 0 24 0H1ZM19.506 6.52345H5.49425C5.27113 6.52345 5.06125 6.57597 4.87096 6.664L10.3354 12.1466L10.3366 12.1474C10.337 12.1478 10.337 12.1483 10.337 12.1483L12.1138 13.9309C12.3026 14.1197 12.6977 14.1197 12.8865 13.9309L14.6629 12.1486L14.6637 12.1474L14.6649 12.1466L20.1292 6.66396C19.9389 6.57591 19.7291 6.52345 19.506 6.52345ZM15.0155 13.2056L13.5917 14.6342C13.0144 15.2136 11.9985 15.2261 11.4086 14.6342L9.98478 13.2056L4.87096 18.336C5.06132 18.424 5.27119 18.4765 5.49432 18.4765H19.506C19.7292 18.4765 19.939 18.4241 20.1293 18.336L15.0155 13.2056ZM3.99996 8.01759C3.99996 7.78079 4.06039 7.55972 4.15887 7.36057L9.28151 12.5002L4.15883 17.6395C4.06032 17.4403 3.99996 17.2192 3.99996 16.9824V8.01759ZM20.841 7.36048L15.7183 12.5002L20.841 17.6395C20.9394 17.4404 20.9999 17.2193 20.9999 16.9824V8.01757C20.9999 7.7807 20.9394 7.55963 20.841 7.36048Z" fill="white"/>
</svg>
