<svg width="26" height="27" viewBox="0 0 26 27" fill="none" xmlns="http://www.w3.org/2000/svg">
<path fill-rule="evenodd" clip-rule="evenodd" d="M17.8425 26.5V16.4315H21.2225L21.7282 12.5081H17.8412V10.003C17.8412 8.8668 18.1571 8.092 19.7873 8.092H21.8647V4.582C20.8587 4.47391 19.8475 4.42183 18.8357 4.426C15.8405 4.426 13.7904 6.2551 13.7904 9.613V12.5081H10.4V16.4315H13.7891V26.5H1.4352C0.6422 26.5 0 25.8578 0 25.0648V1.9352C0 1.1422 0.6422 0.5 1.4352 0.5H24.5648C25.3578 0.5 26 1.1422 26 1.9352V25.0648C26 25.8578 25.3578 26.5 24.5648 26.5H17.8425Z" fill="white"/>
</svg>
