<svg width="26" height="26" viewBox="0 0 26 26" fill="none" xmlns="http://www.w3.org/2000/svg">
<path fill-rule="evenodd" clip-rule="evenodd" d="M2 0C0.895431 0 0 0.89543 0 2V24C0 25.1046 0.89543 26 2 26H24C25.1046 26 26 25.1046 26 24V2C26 0.895431 25.1046 0 24 0H2ZM15.8952 4.0207C15.4515 4.0081 14.9377 4.0027 13.9252 4L12.0749 4.0009C11.4185 3.99871 10.762 4.00561 10.1058 4.0216L9.93121 4.027C9.72962 4.0342 9.52983 4.0432 9.29045 4.054C8.33199 4.099 7.67953 4.25019 7.10536 4.47249C6.50525 4.69845 5.96165 5.05257 5.51244 5.51016C5.05366 5.95965 4.6986 6.50392 4.47209 7.10492C4.2498 7.67911 4.09861 8.33159 4.05361 9.29007L4.05316 9.29995C4.04256 9.53495 4.03371 9.73115 4.02661 9.93086L4.02031 10.1055C4.00462 10.7617 3.99802 11.4182 4.00051 12.0746V13.925C3.99892 14.5814 4.00642 15.2379 4.02301 15.8941L4.02751 16.0687L4.05451 16.7095C4.09951 17.668 4.2507 18.3214 4.47299 18.8946C4.69897 19.4955 5.05341 20.0397 5.51154 20.4894C5.96101 20.9471 6.50493 21.3012 7.10536 21.5271C7.67953 21.7494 8.33289 21.9006 9.29045 21.9456C9.50398 21.9561 9.71757 21.9654 9.93121 21.9735L10.1058 21.9789C10.7623 21.995 11.4191 22.0019 12.0758 21.9996H13.2538L13.9252 21.9987C14.9377 21.9969 15.4515 21.9906 15.8952 21.978L16.0698 21.9726L16.7106 21.9456C17.6681 21.9006 18.3215 21.7494 18.8948 21.5271C19.4955 21.3013 20.0397 20.9472 20.4895 20.4894C20.9473 20.0397 21.3014 19.4954 21.5271 18.8946C21.7485 18.3205 21.9015 17.668 21.9465 16.7095L21.947 16.6993C21.9576 16.4644 21.9664 16.2683 21.9735 16.0687L21.9789 15.8941C21.9949 15.2379 22.0018 14.5814 21.9996 13.925V12.746L21.9987 12.0746C21.9969 11.0621 21.9915 10.5482 21.978 10.1055L21.9726 9.93086C21.9655 9.73106 21.9566 9.53477 21.946 9.29962L21.9456 9.29007C21.9006 8.33159 21.7494 7.67821 21.5271 7.10492C21.3014 6.50416 20.9473 5.95991 20.4895 5.51016C19.9891 5.01068 19.4887 4.70108 18.8948 4.47249C18.3215 4.25019 17.6681 4.099 16.7106 4.054L16.6884 4.053C16.458 4.04264 16.2652 4.03398 16.0698 4.027L15.8952 4.0207ZM9.81824 9.81788C10.6621 8.97399 11.8066 8.49989 13.0001 8.49989C14.1935 8.49989 15.338 8.97399 16.1819 9.81788C17.0257 10.6618 17.4998 11.8063 17.4998 12.9998C17.4998 14.1932 17.0257 15.3378 16.1819 16.1817C15.338 17.0256 14.1935 17.4997 13.0001 17.4997C11.8066 17.4997 10.6621 17.0256 9.81824 16.1817C8.97437 15.3378 8.50029 14.1932 8.50029 12.9998C8.50029 11.8063 8.97437 10.6618 9.81824 9.81788ZM14.0333 10.5052C13.706 10.3697 13.3552 10.2999 13.001 10.2998C12.2849 10.2998 11.5982 10.5843 11.0919 11.0906C10.5855 11.597 10.3011 12.2837 10.3011 12.9998C10.3011 13.7158 10.5855 14.4026 11.0919 14.9089C11.5982 15.4153 12.2849 15.6997 13.001 15.6997C13.3555 15.6997 13.7066 15.6298 14.0341 15.494C14.3617 15.3583 14.6593 15.1594 14.9099 14.9086C15.1606 14.6579 15.3594 14.3602 15.495 14.0326C15.6307 13.705 15.7004 13.3539 15.7004 12.9993C15.7003 12.6448 15.6304 12.2937 15.4947 11.9661C15.3589 11.6386 15.16 11.341 14.9093 11.0903C14.6585 10.8397 14.3609 10.6408 14.0333 10.5052ZM16.9303 7.47942C17.1412 7.26845 17.4274 7.14992 17.7257 7.14992C18.0241 7.14992 18.3102 7.26845 18.5212 7.47942C18.7321 7.69039 18.8507 7.97654 18.8507 8.2749C18.8507 8.57326 18.7321 8.8594 18.5212 9.07037C18.3102 9.28135 18.0241 9.39987 17.7257 9.39987C17.4274 9.39987 17.1412 9.28135 16.9303 9.07037C16.7193 8.8594 16.6008 8.57326 16.6008 8.2749C16.6008 7.97654 16.7193 7.69039 16.9303 7.47942Z" fill="#30472F"/>
</svg>
