<svg width="26" height="27" viewBox="0 0 26 27" fill="none" xmlns="http://www.w3.org/2000/svg">
<path fill-rule="evenodd" clip-rule="evenodd" d="M2 0.5C0.895431 0.5 0 1.39543 0 2.5V24.5C0 25.6046 0.89543 26.5 2 26.5H24C25.1046 26.5 26 25.6046 26 24.5V2.5C26 1.39543 25.1046 0.5 24 0.5H2ZM15.8952 4.5207C15.4515 4.5081 14.9377 4.5027 13.9252 4.5L12.0749 4.5009C11.4185 4.49871 10.762 4.50561 10.1058 4.5216L9.93121 4.527C9.72962 4.5342 9.52983 4.5432 9.29045 4.554C8.33199 4.599 7.67953 4.75019 7.10536 4.97249C6.50525 5.19845 5.96165 5.55257 5.51244 6.01016C5.05366 6.45965 4.6986 7.00392 4.47209 7.60492C4.2498 8.17911 4.09861 8.83159 4.05361 9.79007L4.05316 9.79995C4.04256 10.0349 4.03371 10.2312 4.02661 10.4309L4.02031 10.6055C4.00462 11.2617 3.99802 11.9182 4.00051 12.5746V14.425C3.99892 15.0814 4.00642 15.7379 4.02301 16.3941L4.02751 16.5687L4.05451 17.2095C4.09951 18.168 4.2507 18.8214 4.47299 19.3946C4.69897 19.9955 5.05341 20.5397 5.51154 20.9894C5.96101 21.4471 6.50493 21.8012 7.10536 22.0271C7.67953 22.2494 8.33289 22.4006 9.29045 22.4456C9.50398 22.4561 9.71757 22.4654 9.93121 22.4735L10.1058 22.4789C10.7623 22.495 11.4191 22.5019 12.0758 22.4996H13.2538L13.9252 22.4987C14.9377 22.4969 15.4515 22.4906 15.8952 22.478L16.0698 22.4726L16.7106 22.4456C17.6681 22.4006 18.3215 22.2494 18.8948 22.0271C19.4955 21.8013 20.0397 21.4472 20.4895 20.9894C20.9473 20.5397 21.3014 19.9954 21.5271 19.3946C21.7485 18.8205 21.9015 18.168 21.9465 17.2095L21.947 17.1993C21.9576 16.9644 21.9664 16.7683 21.9735 16.5687L21.9789 16.3941C21.9949 15.7379 22.0018 15.0814 21.9996 14.425V13.246L21.9987 12.5746C21.9969 11.5621 21.9915 11.0482 21.978 10.6055L21.9726 10.4309C21.9655 10.2311 21.9566 10.0348 21.946 9.79962L21.9456 9.79007C21.9006 8.83159 21.7494 8.17821 21.5271 7.60492C21.3014 7.00416 20.9473 6.45991 20.4895 6.01016C19.9891 5.51068 19.4887 5.20108 18.8948 4.97249C18.3215 4.75019 17.6681 4.599 16.7106 4.554L16.6884 4.553C16.458 4.54264 16.2652 4.53398 16.0698 4.527L15.8952 4.5207ZM9.81824 10.3179C10.6621 9.47399 11.8066 8.99989 13.0001 8.99989C14.1935 8.99989 15.338 9.47399 16.1819 10.3179C17.0257 11.1618 17.4998 12.3063 17.4998 13.4998C17.4998 14.6932 17.0257 15.8378 16.1819 16.6817C15.338 17.5256 14.1935 17.9997 13.0001 17.9997C11.8066 17.9997 10.6621 17.5256 9.81824 16.6817C8.97437 15.8378 8.50029 14.6932 8.50029 13.4998C8.50029 12.3063 8.97437 11.1618 9.81824 10.3179ZM14.0333 11.0052C13.706 10.8697 13.3552 10.7999 13.001 10.7998C12.2849 10.7998 11.5982 11.0843 11.0919 11.5906C10.5855 12.097 10.3011 12.7837 10.3011 13.4998C10.3011 14.2158 10.5855 14.9026 11.0919 15.4089C11.5982 15.9153 12.2849 16.1997 13.001 16.1997C13.3555 16.1997 13.7066 16.1298 14.0341 15.994C14.3617 15.8583 14.6593 15.6594 14.9099 15.4086C15.1606 15.1579 15.3594 14.8602 15.495 14.5326C15.6307 14.205 15.7004 13.8539 15.7004 13.4993C15.7003 13.1448 15.6304 12.7937 15.4947 12.4661C15.3589 12.1386 15.16 11.841 14.9093 11.5903C14.6585 11.3397 14.3609 11.1408 14.0333 11.0052ZM16.9303 7.97942C17.1412 7.76845 17.4274 7.64992 17.7257 7.64992C18.0241 7.64992 18.3102 7.76845 18.5212 7.97942C18.7321 8.19039 18.8507 8.47654 18.8507 8.7749C18.8507 9.07326 18.7321 9.3594 18.5212 9.57037C18.3102 9.78135 18.0241 9.89987 17.7257 9.89987C17.4274 9.89987 17.1412 9.78135 16.9303 9.57037C16.7193 9.3594 16.6008 9.07326 16.6008 8.7749C16.6008 8.47654 16.7193 8.19039 16.9303 7.97942Z" fill="white"/>
</svg>
