<svg width="26" height="26" viewBox="0 0 26 26" fill="none" xmlns="http://www.w3.org/2000/svg">
<path fill-rule="evenodd" clip-rule="evenodd" d="M2 0C0.895431 0 0 0.89543 0 2V24C0 25.1046 0.89543 26 2 26H24C25.1046 26 26 25.1046 26 24V2C26 0.895431 25.1046 0 24 0H2ZM6.91999 5C5.86 5 5 5.86 5 6.92C5 7.97999 5.86 8.85999 6.91999 8.85999C7.97999 8.85999 8.83999 7.97999 8.83999 6.92C8.83999 5.86 7.97999 5 6.91999 5ZM20.9999 15.14V20.98H17.68V15.78C17.68 14.54 17.66 12.96 15.96 12.96C14.24 12.96 13.98 14.3 13.98 15.7V21H10.66V10.32H13.84V11.78H13.88C14.32 10.94 15.4 10.06 17.02 10.06C20.3799 10.06 20.9999 12.26 20.9999 15.14ZM8.57998 10.32H5.25999V20.9999H8.57998V10.32Z" fill="white"/>
</svg>
