<svg width="63" height="47" viewBox="0 0 63 47" fill="none" xmlns="http://www.w3.org/2000/svg">
<path d="M50.5867 47C45.36 47 41.6267 45.3281 39.3867 41.9842C37.1467 38.5165 36.0267 34.863 36.0267 31.0237C36.0267 27.8037 36.5244 24.4598 37.52 20.9921C38.5156 17.4005 40.0711 13.9947 42.1867 10.7747C44.3022 7.55468 47.04 4.95389 50.4 2.97233C53.8844 0.990778 58.0533 0 62.9067 0C63.0311 0 63.0311 0.495392 62.9067 1.48617C62.9067 2.47694 62.9067 3.52964 62.9067 4.64426C62.9067 5.63504 62.9067 6.13043 62.9067 6.13043C62.9067 6.13043 62.2222 6.37813 60.8533 6.87352C59.4844 7.24506 57.8667 8.05007 56 9.28854C54.1333 10.4032 52.5156 12.0132 51.1467 14.1186C49.7778 16.224 49.0933 18.9486 49.0933 22.2925C49.3422 22.1686 49.6533 22.1067 50.0267 22.1067C50.4 22.1067 50.7111 22.1067 50.96 22.1067C54.5689 22.1067 57.4311 23.2213 59.5467 25.4506C61.7867 27.6798 62.9067 30.5283 62.9067 33.996C62.9067 37.8353 61.7244 40.9934 59.36 43.4704C57.12 45.8235 54.1956 47 50.5867 47ZM14.56 47C9.33333 47 5.6 45.3281 3.36 41.9842C1.12 38.5165 0 34.863 0 31.0237C0 27.8037 0.497778 24.4598 1.49333 20.9921C2.48889 17.4005 4.04444 13.9947 6.16 10.7747C8.27556 7.55468 11.0133 4.95389 14.3733 2.97233C17.8578 0.990778 22.0267 0 26.88 0C27.0044 0 27.0044 0.495392 26.88 1.48617C26.88 2.47694 26.88 3.52964 26.88 4.64426C26.88 5.63504 26.88 6.13043 26.88 6.13043C26.88 6.13043 26.1956 6.37813 24.8267 6.87352C23.4578 7.24506 21.84 8.05007 19.9733 9.28854C18.1067 10.4032 16.4889 12.0132 15.12 14.1186C13.7511 16.224 13.0667 18.9486 13.0667 22.2925C13.3156 22.1686 13.6267 22.1067 14 22.1067C14.3733 22.1067 14.6844 22.1067 14.9333 22.1067C18.5422 22.1067 21.4044 23.2213 23.52 25.4506C25.76 27.6798 26.88 30.5283 26.88 33.996C26.88 37.8353 25.6978 40.9934 23.3333 43.4704C21.0933 45.8235 18.1689 47 14.56 47Z" fill="#30472F"/>
</svg>
