<svg width="14" height="15" viewBox="0 0 14 15" fill="none" xmlns="http://www.w3.org/2000/svg">
<path fill-rule="evenodd" clip-rule="evenodd" d="M6.22723 0.873791C5.23416 0.873871 4.2555 1.09875 3.37291 1.52966C2.49032 1.96057 1.72939 2.58501 1.15361 3.3509C0.577831 4.11679 0.203895 5.00191 0.0629995 5.93241C-0.0778956 6.86292 0.0183362 7.81182 0.343666 8.69996C0.668997 9.5881 1.21399 10.3897 1.93318 11.0379C2.65237 11.6862 3.5249 12.1622 4.47797 12.4263C5.43105 12.6904 6.43703 12.735 7.41199 12.5562C8.38694 12.3775 9.30261 11.9806 10.0826 11.3988L12.7583 13.9315C12.8965 14.0579 13.0816 14.1278 13.2737 14.1262C13.4658 14.1246 13.6496 14.0517 13.7854 13.9231C13.9212 13.7945 13.9983 13.6206 14 13.4387C14.0016 13.2569 13.9278 13.0817 13.7943 12.9509L11.1186 10.4181C11.8425 9.54886 12.2932 8.50426 12.4192 7.40386C12.5451 6.30345 12.3413 5.19171 11.8309 4.19585C11.3206 3.2 10.5243 2.36027 9.5333 1.77276C8.54229 1.18526 7.39656 0.873716 6.22723 0.873791ZM1.46483 6.76878C1.46483 5.5732 1.96658 4.42659 2.8597 3.58119C3.75283 2.73579 4.96416 2.26085 6.22723 2.26085C7.4903 2.26085 8.70164 2.73579 9.59476 3.58119C10.4879 4.42659 10.9896 5.5732 10.9896 6.76878C10.9896 7.96435 10.4879 9.11096 9.59476 9.95636C8.70164 10.8018 7.4903 11.2767 6.22723 11.2767C4.96416 11.2767 3.75283 10.8018 2.8597 9.95636C1.96658 9.11096 1.46483 7.96435 1.46483 6.76878Z" fill="white"/>
</svg>
