<svg width="15" height="15" viewBox="0 0 15 15" fill="none" xmlns="http://www.w3.org/2000/svg">
<g clip-path="url(#clip0_42_449)">
<path d="M10.1588 4.84127C9.48419 4.16666 8.53181 3.73016 7.50007 3.73016C6.46832 3.73016 5.51594 4.14682 4.84134 4.84127C4.16673 5.51587 3.73022 6.46825 3.73022 7.5C3.73022 8.53174 4.16673 9.48412 4.84134 10.1587C5.51594 10.8333 6.46832 11.2698 7.50007 11.2698C8.53181 11.2698 9.48419 10.8532 10.1588 10.1587C10.8334 9.48412 11.2699 8.53174 11.2699 7.5C11.2699 6.46825 10.8532 5.51587 10.1588 4.84127ZM9.44451 9.44444C8.94848 9.94047 8.25403 10.2381 7.50007 10.2381C6.7461 10.2381 6.05165 9.94047 5.55562 9.44444C5.05959 8.94841 4.76197 8.25397 4.76197 7.5C4.76197 6.74603 5.05959 6.05158 5.55562 5.55555C6.05165 5.05952 6.7461 4.7619 7.50007 4.7619C8.25403 4.7619 8.94848 5.05952 9.44451 5.55555C9.94054 6.05158 10.2382 6.74603 10.2382 7.5C10.2382 8.25397 9.94054 8.94841 9.44451 9.44444Z" fill="white"/>
<path d="M14.4841 6.98413H12.9563C12.6785 6.98413 12.4404 7.22223 12.4404 7.5C12.4404 7.77778 12.6785 8.01588 12.9563 8.01588H14.4841C14.7619 8.01588 15 7.77778 15 7.5C15 7.22223 14.7619 6.98413 14.4841 6.98413Z" fill="white"/>
<path d="M7.5 12.4405C7.22223 12.4405 6.98413 12.6786 6.98413 12.9563V14.4841C6.98413 14.7619 7.22223 15 7.5 15C7.77778 15 8.01588 14.7619 8.01588 14.4841V12.9563C8.01588 12.6786 7.77778 12.4405 7.5 12.4405Z" fill="white"/>
<path d="M12.7976 12.0833L11.7064 10.9921C11.5278 10.7937 11.1905 10.7937 10.9921 10.9921C10.7937 11.1905 10.7937 11.5079 10.9921 11.7063L12.0833 12.7976C12.2818 12.996 12.5992 12.996 12.7976 12.7976C12.996 12.5992 12.996 12.2817 12.7976 12.0833Z" fill="white"/>
<path d="M7.5 0C7.22223 0 6.98413 0.238095 6.98413 0.515873V2.04365C6.98413 2.32143 7.22223 2.55952 7.5 2.55952C7.77778 2.55952 8.01588 2.32143 8.01588 2.04365V0.515873C8.01588 0.238095 7.77778 0 7.5 0Z" fill="white"/>
<path d="M12.8174 2.20238C12.619 2.00397 12.3015 2.00397 12.1031 2.20238L11.0118 3.29365C10.8134 3.49207 10.8134 3.80953 11.0118 4.00794C11.1904 4.20635 11.5277 4.20635 11.7261 4.00794L12.8174 2.91667C13.0158 2.71826 13.0158 2.4008 12.8174 2.20238Z" fill="white"/>
<path d="M2.04365 6.98413H0.515873C0.238095 6.98413 0 7.22223 0 7.5C0 7.77778 0.218254 8.01588 0.515873 8.01588H2.04365C2.32143 8.01588 2.55952 7.77778 2.55952 7.5C2.55952 7.22223 2.32143 6.98413 2.04365 6.98413Z" fill="white"/>
<path d="M3.98806 10.9921C3.80949 10.7937 3.47218 10.7937 3.27377 10.9921L2.1825 12.0833C1.98409 12.2817 1.98409 12.5992 2.1825 12.7976C2.38091 12.996 2.69837 12.996 2.89679 12.7976L3.98806 11.7063C4.18647 11.5079 4.18647 11.1905 3.98806 10.9921Z" fill="white"/>
<path d="M3.98806 3.29365L2.89679 2.20238C2.69837 2.00397 2.38091 2.00397 2.1825 2.20238C1.98409 2.4008 1.98409 2.71826 2.1825 2.91667L3.27377 4.00794C3.47218 4.20635 3.78964 4.20635 3.98806 4.00794C4.18647 3.80953 4.18647 3.49207 3.98806 3.29365Z" fill="white"/>
</g>
<defs>
<clipPath id="clip0_42_449">
<rect width="15" height="15" fill="white"/>
</clipPath>
</defs>
</svg>
