<svg width="26" height="26" viewBox="0 0 26 26" fill="none" xmlns="http://www.w3.org/2000/svg">
<path fill-rule="evenodd" clip-rule="evenodd" d="M2 0C0.895431 0 0 0.89543 0 2V24C0 25.1046 0.89543 26 2 26H24C25.1046 26 26 25.1046 26 24V2C26 0.895431 25.1046 0 24 0H2ZM13.119 21H13.1235L13.123 20.9994H13.1276C15.244 20.985 16.7359 20.4405 17.9646 19.2339C19.573 17.6552 19.5242 15.6759 18.9943 14.4613C18.6139 13.5901 17.8893 12.8825 16.898 12.4152C16.8279 12.3823 16.7571 12.3507 16.6848 12.3201C16.5589 10.0447 15.2941 8.74187 13.1695 8.72863H13.1408C11.8702 8.72863 10.8134 9.26219 10.1629 10.2319L11.3311 11.0196C11.8173 10.2947 12.5799 10.1403 13.1413 10.1403H13.1609C13.8602 10.1449 14.3884 10.3443 14.7297 10.7344C14.978 11.0179 15.1446 11.4102 15.2268 11.9052C14.6067 11.8015 13.9361 11.7698 13.2189 11.8102C12.246 11.8649 11.4225 12.1628 10.8369 12.6704C10.2243 13.2017 9.91056 13.9312 9.95366 14.7246C9.99792 15.5405 10.4117 16.2423 11.1185 16.701C11.7162 17.0888 12.4862 17.2783 13.2856 17.2351C14.3419 17.1781 15.1762 16.7764 15.7647 16.0418C16.206 15.4915 16.4917 14.7609 16.6187 13.8608C17.1238 14.1593 17.4985 14.5534 17.7048 15.0265C18.0554 15.8292 18.0755 17.1486 16.9802 18.2244C16.0205 19.1671 14.8665 19.5745 13.123 19.5871C11.1886 19.5733 9.72615 18.9637 8.77506 17.7756C7.88487 16.6635 7.42457 15.0565 7.40734 12.9994C7.42401 10.943 7.88431 9.33597 8.77506 8.22331C9.72612 7.03516 11.1886 6.42553 13.123 6.41172C16.0527 6.43303 17.91 7.7825 18.6438 10.4221L20 10.0429C19.5667 8.48431 18.7817 7.25816 17.6663 6.39787C16.4796 5.48284 14.9527 5.01209 13.1276 5H13.1184C10.7381 5.01613 8.90721 5.80322 7.67802 7.33997C6.58329 8.70728 6.01898 10.6093 6 12.9942V13.0058C6.01895 15.3901 6.58329 17.2927 7.67802 18.66C8.9078 20.1968 10.7381 20.9838 13.119 21ZM13.2994 13.2201C13.466 13.2103 13.6292 13.2057 13.7901 13.2057C14.3189 13.2057 14.813 13.2564 15.2624 13.3526C15.0849 15.465 14.0252 15.7824 13.2109 15.8263C12.3265 15.8741 11.4058 15.4852 11.3604 14.6485C11.3173 13.8499 12.0782 13.2893 13.2994 13.2201Z" fill="white"/>
</svg>
