<svg width="27" height="26" viewBox="0 0 27 26" fill="none" xmlns="http://www.w3.org/2000/svg">
<path fill-rule="evenodd" clip-rule="evenodd" d="M2.5 0C1.39543 0 0.5 0.89543 0.5 2V24C0.5 25.1046 1.39543 26 2.5 26H24.5C25.6046 26 26.5 25.1046 26.5 24V2C26.5 0.895431 25.6046 0 24.5 0H2.5ZM16.2092 6C16.2091 6.80687 16.4974 7.5863 17.0204 8.19333C18.0612 9.41444 19.5 9.34444 19.5 9.34444V11.7478C18.3194 11.7498 17.1681 11.3743 16.2092 10.6744V15.5667C16.2092 18.0167 14.2577 20 11.8546 20C9.61225 20 7.5 18.1567 7.5 15.5667C7.5 12.9067 9.81122 10.8222 12.4515 11.18V13.6378C11.1429 13.2256 9.87245 14.2289 9.87245 15.5667C9.87245 16.6867 10.7755 17.5889 11.8622 17.5889C12.3762 17.5892 12.8702 17.3866 13.24 17.0238C13.6098 16.6611 13.8265 16.1665 13.8444 15.6444V6H16.2092Z" fill="white"/>
</svg>
