<svg width="26" height="26" viewBox="0 0 26 26" fill="none" xmlns="http://www.w3.org/2000/svg">
<path fill-rule="evenodd" clip-rule="evenodd" d="M2 0C0.895431 0 0 0.89543 0 2V24C0 25.1046 0.89543 26 2 26H24C25.1046 26 26 25.1046 26 24V2C26 0.895431 25.1046 0 24 0H2ZM15.7092 6C15.7091 6.80687 15.9974 7.5863 16.5204 8.19333C17.5612 9.41444 19 9.34444 19 9.34444V11.7478C17.8194 11.7498 16.6681 11.3743 15.7092 10.6744V15.5667C15.7092 18.0167 13.7577 20 11.3546 20C9.11225 20 7 18.1567 7 15.5667C7 12.9067 9.31122 10.8222 11.9515 11.18V13.6378C10.6429 13.2256 9.37245 14.2289 9.37245 15.5667C9.37245 16.6867 10.2755 17.5889 11.3622 17.5889C11.8762 17.5892 12.3702 17.3866 12.74 17.0238C13.1098 16.6611 13.3265 16.1665 13.3444 15.6444V6H15.7092Z" fill="#30472F"/>
</svg>
