<svg width="15" height="15" viewBox="0 0 15 15" fill="none" xmlns="http://www.w3.org/2000/svg">
<path fill-rule="evenodd" clip-rule="evenodd" d="M1 0C0.447715 0 0 0.447715 0 1V14C0 14.5523 0.447715 15 1 15H14C14.5523 15 15 14.5523 15 14V1C15 0.447715 14.5523 0 14 0H1ZM9.62124 2.41273C10.2865 2.68751 10.8901 3.09128 11.397 3.60053C12.4307 4.62902 13 5.99852 13 7.45602C13 10.459 10.5402 12.9065 7.52211 12.9065C6.60452 12.9065 5.70352 12.6755 4.90201 12.241L2 13L2.77387 10.173C2.29849 9.34801 2.04422 8.41301 2.04422 7.45052C2.04422 4.44752 4.50402 2.00003 7.52211 2.00003C8.24241 1.99766 8.95598 2.13795 9.62124 2.41273ZM5.2005 11.35C5.90251 11.7625 6.70402 11.9825 7.52211 11.9825C10.0317 11.9825 12.0769 9.95301 12.0658 7.45602C12.0681 6.86041 11.9516 6.27028 11.7229 5.71985C11.4942 5.16942 11.158 4.66965 10.7337 4.24952C9.87688 3.39153 8.73266 2.91853 7.51658 2.91853C5.00703 2.91853 2.96181 4.95352 2.96181 7.45052C2.96232 8.30261 3.20367 9.13739 3.65829 9.85951L3.76884 10.03L3.31005 11.702L5.03467 11.251L5.2005 11.35ZM9.8386 8.50652C9.92076 8.54635 9.98676 8.57835 10.0206 8.59451C10.0479 8.60757 10.0731 8.61912 10.0962 8.62971C10.1899 8.67268 10.2494 8.69998 10.2804 8.74851C10.3191 8.80901 10.3191 9.07851 10.203 9.39751C10.0925 9.71651 9.54523 10.008 9.2799 10.0465C9.04221 10.0795 8.74372 10.096 8.41759 9.99151C8.21859 9.93101 7.96432 9.84851 7.63819 9.70551C6.32759 9.14288 5.44645 7.86137 5.31355 7.6681C5.30744 7.65921 5.30292 7.65262 5.3 7.64851L5.29892 7.64709C5.22853 7.55372 4.74171 6.90801 4.74171 6.24052C4.74171 5.62144 5.04285 5.29263 5.18496 5.13747C5.19688 5.12445 5.20768 5.11266 5.21708 5.10202C5.34422 4.96452 5.48794 4.93152 5.58191 4.93152H5.84724C5.85684 4.93216 5.86688 4.93228 5.87731 4.9324C5.95696 4.93336 6.05903 4.93459 6.15678 5.16802C6.26734 5.44302 6.54372 6.11402 6.57688 6.18002C6.61005 6.24602 6.63216 6.32302 6.58794 6.41652C6.58417 6.42402 6.58052 6.43133 6.57695 6.43846C6.53872 6.51496 6.51042 6.57158 6.44975 6.64202C6.42857 6.6666 6.40626 6.69343 6.38373 6.72053C6.33569 6.77831 6.28661 6.83733 6.24523 6.87852C6.17337 6.95002 6.10703 7.02152 6.18442 7.15902C6.26734 7.29652 6.53819 7.74201 6.94724 8.10501C7.39151 8.50004 7.77921 8.66587 7.96866 8.74691C8.00078 8.76064 8.0272 8.77194 8.04724 8.78151C8.18543 8.85301 8.26834 8.84201 8.34573 8.74851C8.42311 8.66051 8.68291 8.35251 8.77688 8.21501C8.87085 8.08301 8.9593 8.10501 9.08643 8.14901C9.17826 8.18639 9.58527 8.38371 9.8386 8.50652Z" fill="white"/>
</svg>
