<svg width="26" height="26" viewBox="0 0 26 26" fill="none" xmlns="http://www.w3.org/2000/svg">
<path fill-rule="evenodd" clip-rule="evenodd" d="M2 0C0.895431 0 0 0.89543 0 2V24C0 25.1046 0.89543 26 2 26H24C25.1046 26 26 25.1046 26 24V2C26 0.895431 25.1046 0 24 0H2ZM20.0537 5.74951H17.6L13.5554 10.3827L10.0629 5.75065H5L11.0469 13.6787L5.31429 20.2501H7.77029L12.1931 15.1815L16.0629 20.2501H21L14.6937 11.8912L20.0537 5.74951ZM18.0971 18.7781H16.7371L7.86171 7.14494H9.32L18.0971 18.7781Z" fill="#30472F"/>
</svg>
