<svg width="26" height="27" viewBox="0 0 26 27" fill="none" xmlns="http://www.w3.org/2000/svg">
<path fill-rule="evenodd" clip-rule="evenodd" d="M2 0.5C0.895431 0.5 0 1.39543 0 2.5V24.5C0 25.6046 0.89543 26.5 2 26.5H24C25.1046 26.5 26 25.6046 26 24.5V2.5C26 1.39543 25.1046 0.5 24 0.5H2ZM20.0537 6.24951H17.6L13.5554 10.8827L10.0629 6.25065H5L11.0469 14.1787L5.31429 20.7501H7.77029L12.1931 15.6815L16.0629 20.7501H21L14.6937 12.3912L20.0537 6.24951ZM18.0971 19.2781H16.7371L7.86171 7.64494H9.32L18.0971 19.2781Z" fill="white"/>
</svg>
