<svg width="27" height="26" viewBox="0 0 27 26" fill="none" xmlns="http://www.w3.org/2000/svg">
<path fill-rule="evenodd" clip-rule="evenodd" d="M2.5 0C1.39543 0 0.5 0.89543 0.5 2V24C0.5 25.1046 1.39543 26 2.5 26H24.5C25.6046 26 26.5 25.1046 26.5 24V2C26.5 0.895431 25.6046 0 24.5 0H2.5ZM16.371 13L11.7 15.5714V10.4286L16.371 13ZM22.356 10.4886C22.302 9.80286 22.221 9.26286 22.104 8.86C21.879 8.08857 21.357 7.59143 20.547 7.37714C19.62 7.13714 17.271 7 13.5 7L12.069 7.05143C11.079 7.05143 10.008 7.07714 8.838 7.13714C7.65 7.18857 6.876 7.26571 6.453 7.37714C5.643 7.59143 5.121 8.08857 4.896 8.86C4.644 9.74286 4.5 11.1229 4.5 13L4.554 13.72C4.554 14.2343 4.581 14.8257 4.644 15.5114C4.698 16.1971 4.779 16.7371 4.896 17.14C5.121 17.9114 5.643 18.4086 6.453 18.6229C7.38 18.8629 9.729 19 13.5 19L14.931 18.9486C15.921 18.9486 16.992 18.9229 18.162 18.8629C19.35 18.8114 20.124 18.7343 20.547 18.6229C21.357 18.4086 21.879 17.9114 22.104 17.14C22.356 16.2571 22.5 14.8771 22.5 13L22.446 12.28C22.446 11.7657 22.419 11.1743 22.356 10.4886Z" fill="white"/>
</svg>
