<svg width="26" height="26" viewBox="0 0 26 26" fill="none" xmlns="http://www.w3.org/2000/svg">
<path fill-rule="evenodd" clip-rule="evenodd" d="M2 0C0.895431 0 0 0.89543 0 2V24C0 25.1046 0.89543 26 2 26H24C25.1046 26 26 25.1046 26 24V2C26 0.895431 25.1046 0 24 0H2ZM15.871 13L11.2 15.5714V10.4286L15.871 13ZM21.856 10.4886C21.802 9.80286 21.721 9.26286 21.604 8.86C21.379 8.08857 20.857 7.59143 20.047 7.37714C19.12 7.13714 16.771 7 13 7L11.569 7.05143C10.579 7.05143 9.508 7.07714 8.338 7.13714C7.15 7.18857 6.376 7.26571 5.953 7.37714C5.143 7.59143 4.621 8.08857 4.396 8.86C4.144 9.74286 4 11.1229 4 13L4.054 13.72C4.054 14.2343 4.081 14.8257 4.144 15.5114C4.198 16.1971 4.279 16.7371 4.396 17.14C4.621 17.9114 5.143 18.4086 5.953 18.6229C6.88 18.8629 9.229 19 13 19L14.431 18.9486C15.421 18.9486 16.492 18.9229 17.662 18.8629C18.85 18.8114 19.624 18.7343 20.047 18.6229C20.857 18.4086 21.379 17.9114 21.604 17.14C21.856 16.2571 22 14.8771 22 13L21.946 12.28C21.946 11.7657 21.919 11.1743 21.856 10.4886Z" fill="#30472F"/>
</svg>
